HIERARCHY
ROOT Hips
{
    OFFSET 0.000000 0.000000 0.000000
    CHANNELS 6 Xposition Yposition Zposition Zrotation Xrotation Yrotation
    JOINT Spine
    {
        OFFSET -0.000000 14.517291 0.000000
        CHANNELS 3 Zrotation Xrotation Yrotation
        JOINT Spine1
        {
            OFFSET -0.000000 37.558300 0.000000
            CHANNELS 3 Zrotation Xrotation Yrotation
            JOINT Neck
            {
                OFFSET -0.000000 37.404057 3.400369
                CHANNELS 3 Zrotation Xrotation Yrotation
                JOINT Head
                {
                    OFFSET -0.000000 24.785618 -3.540803
                    CHANNELS 3 Zrotation Xrotation Yrotation
                    End Site
                    {
                        OFFSET -0.000000 35.408028 0.000000
                    }
                }
            }
            JOINT LeftShoulder
            {
                OFFSET 6.992933 33.973492 -0.192664
                CHANNELS 3 Zrotation Xrotation Yrotation
                JOINT LeftArm
                {
                    OFFSET 21.527611 0.000000 0.000000
                    CHANNELS 3 Zrotation Xrotation Yrotation
                    JOINT LeftForeArm
                    {
                        OFFSET 56.353916 0.000000 0.000000
                        CHANNELS 3 Zrotation Xrotation Yrotation
                        JOINT LeftHand
                        {
                            OFFSET 47.774071 0.000000 0.000000
                            CHANNELS 3 Zrotation Xrotation Yrotation
                            End Site
                            {
                                OFFSET 26.556021 0.000000 0.000000
                            }
                        }
                    }
                }
            }
            JOINT RightShoulder
            {
                OFFSET -7.065357 33.973492 -0.192664
                CHANNELS 3 Zrotation Xrotation Yrotation
                JOINT RightArm
                {
                    OFFSET -21.527611 0.000000 0.000000
                    CHANNELS 3 Zrotation Xrotation Yrotation
                    JOINT RightForeArm
                    {
                        OFFSET -56.353916 0.000000 0.000000
                        CHANNELS 3 Zrotation Xrotation Yrotation
                        JOINT RightHand
                        {
                            OFFSET -47.774071 0.000000 0.000000
                            CHANNELS 3 Zrotation Xrotation Yrotation
                            End Site
                            {
                                OFFSET -26.556021 0.000000 0.000000
                            }
                        }
                    }
                }
            }
        }
    }
    JOINT LeftUpLeg
    {
        OFFSET 17.704014 0.000000 0.000000
        CHANNELS 3 Zrotation Xrotation Yrotation
        JOINT LeftLeg
        {
            OFFSET -0.000000 -81.181816 0.000000
            CHANNELS 3 Zrotation Xrotation Yrotation
            JOINT LeftFoot
            {
                OFFSET -0.000000 -62.821102 0.000000
                CHANNELS 3 Zrotation Xrotation Yrotation
                JOINT LeftToeBase
                {
                    OFFSET -0.000000 -11.507608 26.556021
                    CHANNELS 3 Zrotation Xrotation Yrotation
                    End Site
                    {
                        OFFSET -0.000000 0.000000 7.081605
                    }
                }
            }
        }
    }
    JOINT RightUpLeg
    {
        OFFSET -17.704014 0.000000 0.000000
        CHANNELS 3 Zrotation Xrotation Yrotation
        JOINT RightLeg
        {
            OFFSET -0.000000 -81.181816 0.000000
            CHANNELS 3 Zrotation Xrotation Yrotation
            JOINT RightFoot
            {
                OFFSET -0.000000 -62.821102 0.000000
                CHANNELS 3 Zrotation Xrotation Yrotation
                JOINT RightToeBase
                {
                    OFFSET -0.000000 -11.507608 26.556021
                    CHANNELS 3 Zrotation Xrotation Yrotation
                    End Site
                    {
                        OFFSET -0.000000 0.000000 7.081605
                    }
                }
            }
        }
    }
}
MOTION
Frames:    6
Frame Time:    0.008333
22.978037    158.789536    10.155784    2.246886    34.150993    -4.883091    -1.118392    10.185633    12.493215    -6.576365    -2.838814    3.957770    19.614956    -7.688908    10.218699    -11.783879    -9.535937    3.710410    6.464643    1.884115    -7.169574    -45.724293    18.014950    -41.047031    -5.191418    -18.779285    -125.470413    -0.868740    -28.007809    -4.752919    -13.949690    -6.362881    5.136871    25.781645    -22.567753    68.373787    0.371263    -23.735197    14.610175    14.883830    -18.306324    42.768757    0.478930    -60.362270    -22.307785    -17.672689    31.301991    -9.168149    2.148226    -4.125657    41.594189    0.000000    0.000000    0.000000    -0.287797    -11.008268    -20.751646    3.701250    4.952663    -13.826671    10.636521    -6.495312    -10.917904    0.000000    0.000000    0.000000    
22.956490    158.746597    10.231416    2.261909    34.290054    -4.871171    -2.028320    8.998778    13.756349    -5.282284    -1.146939    4.470820    20.819798    -7.777168    10.046634    -13.713320    -10.021479    2.753586    7.270287    1.762055    -8.889154    -47.030415    17.122377    -41.883450    -5.314323    -17.854364    -124.911163    -0.856880    -27.248440    -4.866406    -13.667727    -6.708150    3.815936    24.275316    -22.482239    67.567757    0.400470    -24.195728    14.494307    15.179483    -18.642107    42.997013    0.353518    -60.541168    -22.548704    -17.727327    31.430809    -9.160183    2.192602    -4.203342    41.718849    0.000000    0.000000    0.000000    -0.300470    -11.100272    -20.734358    3.713026    4.945323    -13.871477    10.646845    -6.490238    -10.953811    0.000000    0.000000    0.000000    
22.945484    158.699097    10.305621    2.289128    34.432060    -4.872257    -2.038202    9.040531    13.769728    -5.233537    -1.167164    4.474236    20.752806    -7.626815    10.012340    -13.708418    -10.198168    2.741215    7.215906    1.799619    -8.853712    -46.987442    17.108801    -41.932026    -5.357793    -17.810835    -124.966049    -0.839416    -27.293880    -4.859185    -13.686176    -6.689762    3.898210    24.123804    -22.389172    67.486588    0.278408    -24.331667    14.380572    15.294827    -18.723850    43.001060    0.219464    -60.749077    -22.774607    -17.567415    31.753275    -9.781607    2.011813    -4.501914    41.991966    0.000000    0.000000    0.000000    -0.327668    -11.188630    -20.719162    3.725941    4.931901    -13.939327    10.631629    -6.468611    -10.926708    0.000000    0.000000    0.000000    
22.929941    158.641129    10.374919    2.314956    34.565792    -4.885877    -2.064317    9.060796    13.834211    -5.213385    -1.158457    4.495493    20.739889    -7.577152    9.965660    -13.683710    -10.262022    2.702842    7.270496    1.794641    -8.895007    -47.063396    17.055174    -41.948158    -5.333230    -17.742418    -124.963036    -0.878830    -27.185627    -4.854031    -13.636962    -6.686741    3.901152    24.168451    -22.434980    67.482910    0.411483    -24.366335    14.334725    16.117929    -18.411470    43.322773    0.151041    -60.898277    -22.929819    -17.850876    31.681532    -9.143773    2.323840    -4.339346    41.910397    0.000000    0.000000    0.000000    -0.351367    -11.275745    -20.717644    3.733143    4.932615    -13.970981    10.625986    -6.472310    -10.922894    0.000000    0.000000    0.000000    
22.914433    158.571823    10.442195    2.344464    34.679729    -4.907951    -2.049777    9.058081    13.873623    -5.240776    -1.057271    4.513346    20.819714    -7.524270    9.987588    -13.797706    -10.391961    2.676037    7.297007    1.763304    -8.868445    -47.030949    17.072716    -42.021046    -5.342392    -17.736738    -124.977036    -0.886008    -27.198271    -4.898549    -13.591475    -6.745272    3.944873    24.102907    -22.403028    67.410133    0.366201    -24.378748    14.251338    16.047165    -18.452259    43.282417    0.083976    -61.096531    -23.095451    -17.746616    32.014442    -9.768446    2.175195    -4.646114    42.197353    0.000000    0.000000    0.000000    -0.380660    -11.334597    -20.715405    3.731848    4.924298    -14.036622    10.630245    -6.480588    -10.810648    0.000000    0.000000    0.000000    
22.901487    158.502716    10.501028    2.371888    34.785187    -4.932376    -2.140915    8.993124    13.994972    -5.031797    -0.923442    4.559730    20.723175    -7.447483    9.918685    -13.857265    -10.545249    2.607902    7.218909    1.718044    -8.987179    -47.039814    17.038401    -42.055679    -5.279408    -17.815424    -124.934753    -1.013407    -27.148886    -5.031046    -13.675077    -6.683486    3.861097    23.972755    -22.386936    67.403275    0.297463    -24.540909    14.167766    16.059233    -18.609131    43.276318    0.042737    -61.215569    -23.220774    -18.115000    32.013382    -9.144223    2.617246    -4.594634    42.235901    0.000000    0.000000    0.000000    -0.412625    -11.390491    -20.737213    3.729822    4.925839    -14.087663    10.640294    -6.482347    -10.678204    0.000000    0.000000    0.000000    
